<?xml version="1.0" encoding="UTF-8"?>
<svg version="1.1" xmlns="http://www.w3.org/2000/svg" width="85" height="91">
<path d="M0 0 C5.77059608 3.18377715 9.16551297 6.78298475 11.0390625 13.125 C11.86864954 19.83711336 11.97001685 26.44991773 8.44921875 32.40625 C5.12174259 36.46189961 1.00357813 39.47016146 -3.9609375 41.125 C-11.40246684 41.79749376 -17.82378839 41.72072561 -23.9609375 37.125 C-29.10936597 32.09098105 -32.01060276 26.33894422 -32.3359375 19.125 C-32.01242858 11.95154123 -29.14107008 6.07990943 -23.9609375 1.125 C-15.63150713 -4.0032535 -8.69077276 -4.30058858 0 0 Z " fill="#E94325" transform="translate(53.9609375,28.875)"/>
<path d="M0 0 C4.90308174 5.04316979 6.45124265 9.71930704 6.6875 16.75 C6.50270365 22.64295023 5.42875407 26.34181526 2.1875 31.25 C1.1975 31.91 0.2075 32.57 -0.8125 33.25 C-1.080625 32.0125 -1.34875 30.775 -1.625 29.5 C-2.79970338 24.8593317 -2.79970338 24.8593317 -5.8125 21.25 C-8.10774839 20.42725471 -10.38807053 19.74673773 -12.75390625 19.15625 C-15.409801 17.98705155 -15.61492004 16.82719206 -16.8125 14.25 C-18.71026252 12.57218737 -18.71026252 12.57218737 -20.875 11.125 C-24.71527778 8.44444444 -24.71527778 8.44444444 -25.8125 6.25 C-29.90642846 5.16240913 -29.90642846 5.16240913 -33.8125 6.25 C-32.41442483 1.35673692 -29.90820565 -0.8357479 -25.8125 -3.75 C-16.14896715 -8.16161282 -8.46773353 -5.26881197 0 0 Z " fill="#F2AA20" transform="translate(58.8125,31.75)"/>
<path d="M0 0 C4.78384933 2.97661736 7.44114842 6.62406859 9 12 C10.08837209 23.36744186 10.08837209 23.36744186 7 28 C7 25.36 7 22.72 7 20 C5.35 19.34 3.7 18.68 2 18 C2 17.34 2 16.68 2 16 C1.34 16 0.68 16 0 16 C0 15.34 0 14.68 0 14 C-1.32 14 -2.64 14 -4 14 C-4 13.34 -4 12.68 -4 12 C-4.66 12 -5.32 12 -6 12 C-6.061875 11.38125 -6.12375 10.7625 -6.1875 10.125 C-6.455625 9.42375 -6.72375 8.7225 -7 8 C-7.804375 7.690625 -8.60875 7.38125 -9.4375 7.0625 C-12 6 -12 6 -13.3125 3.375 C-13.539375 2.59125 -13.76625 1.8075 -14 1 C-17.3 0.67 -20.6 0.34 -24 0 C-23 -2 -23 -2 -20.4375 -3.125 C-12.43006992 -5.16325493 -7.09283203 -3.91328664 0 0 Z " fill="#F2D970" transform="translate(56,30)"/>
<path d="M0 0 C2.97 0.495 2.97 0.495 6 1 C6.33 1.99 6.66 2.98 7 4 C7.825 4.33 8.65 4.66 9.5 5 C10.325 5.33 11.15 5.66 12 6 C12.33 6.99 12.66 7.98 13 9 C15.00016466 10.20882096 15.00016466 10.20882096 17 11 C17 11.99 17 12.98 17 14 C17.60328125 14.08636719 18.2065625 14.17273437 18.828125 14.26171875 C25.42074364 15.42074364 25.42074364 15.42074364 28.5 18.5 C30.97160274 22.6193379 31.51427392 25.11439777 31 30 C28.15739513 32.38164192 26.71594733 33 23 33 C23 32.34 23 31.68 23 31 C23.99 30.67 24.98 30.34 26 30 C27.16666667 28.08333333 27.16666667 28.08333333 28 26 C28.33 25.34 28.66 24.68 29 24 C27.35 24 25.7 24 24 24 C23.67 23.01 23.34 22.02 23 21 C21.14255793 20.38932856 21.14255793 20.38932856 19 20 C18.08347656 19.52046875 18.08347656 19.52046875 17.1484375 19.03125 C14.22345425 17.62725804 11.29949361 17.21222233 8.12109375 16.66015625 C5.662151 15.89484994 4.55643753 15.03612648 3 13 C3.33333333 11.66666667 3.66666667 10.33333333 4 9 C2.60411246 7.35405861 2.60411246 7.35405861 1 6 C1 5.34 1 4.68 1 4 C0.01 4 -0.98 4 -2 4 C-1.34 2.68 -0.68 1.36 0 0 Z " fill="#EE6B22" transform="translate(27,36)"/>
<path d="M0 0 C1.43793392 0.31049726 2.8753318 0.6234776 4.3125 0.9375 C5.11300781 1.11152344 5.91351563 1.28554688 6.73828125 1.46484375 C11.79033232 2.66023407 13.62313162 4.29274473 16.63671875 8.390625 C19.17563849 13.25021923 19.52273116 18.60192482 20 24 C11.30758199 20.88157621 5.20970313 14.09671124 1 6 C0.125 2.4375 0.125 2.4375 0 0 Z " fill="#2E8B4C" transform="translate(8,59)"/>
<path d="M0 0 C-2.18999342 8.54097433 -7.62776607 16.1435608 -15 21 C-16.65065201 21.70538654 -18.31513136 22.38077477 -20 23 C-18.79725717 9.20993138 -18.79725717 9.20993138 -13.8515625 4.30078125 C-9.68818972 1.37588012 -5.05679847 0 0 0 Z " fill="#259342" transform="translate(79,60)"/>
<path d="M0 0 C0.66 0.66 1.32 1.32 2 2 C1.86049145 7.02230784 0.93872902 12.3733101 -2.0625 16.5 C-5.70522773 19.60019381 -9.26571355 21.24624062 -14 22 C-16.27734375 21.56640625 -16.27734375 21.56640625 -18 21 C-13.61891451 12.27820769 -8.53290149 4.99486917 0 0 Z " fill="#27286A" transform="translate(26,13)"/>
<path d="M0 0 C9.08431902 3.3542101 13.65828871 9.53511993 18 18 C18.33 18.99 18.66 19.98 19 21 C12.73552648 20.36076801 7.57738082 19.10260014 2.625 15.0625 C0.09475187 10.29395545 0.16989998 5.32636425 0 0 Z " fill="#252B72" transform="translate(60,14)"/>
<path d="M0 0 C1.65322266 0.01740234 1.65322266 0.01740234 3.33984375 0.03515625 C4.99693359 0.04869141 4.99693359 0.04869141 6.6875 0.0625 C7.54214844 0.07410156 8.39679687 0.08570313 9.27734375 0.09765625 C9.78138143 1.38775268 10.28044301 2.67979414 10.77734375 3.97265625 C11.05578125 4.69195313 11.33421875 5.41125 11.62109375 6.15234375 C12.27734375 8.09765625 12.27734375 8.09765625 12.27734375 10.09765625 C6.00734375 10.09765625 -0.26265625 10.09765625 -6.72265625 10.09765625 C-3.39739004 0.12185761 -3.39739004 0.12185761 0 0 Z " fill="#223B85" transform="translate(40.72265625,9.90234375)"/>
<path d="M0 0 C6.27 0 12.54 0 19 0 C16 9 16 9 15 10 C13.14712498 10.07226502 11.29166122 10.0838122 9.4375 10.0625 C8.42558594 10.05347656 7.41367187 10.04445313 6.37109375 10.03515625 C5.19740234 10.01775391 5.19740234 10.01775391 4 10 C3.3310968 8.52184338 2.66493641 7.04244528 2 5.5625 C1.62875 4.73878906 1.2575 3.91507812 0.875 3.06640625 C0 1 0 1 0 0 Z " fill="#3B914E" transform="translate(34,76)"/>
<path d="M0 0 C2.97 0.495 2.97 0.495 6 1 C6.33 1.99 6.66 2.98 7 4 C7.825 4.33 8.65 4.66 9.5 5 C10.325 5.33 11.15 5.66 12 6 C12.33 6.99 12.66 7.98 13 9 C15.00016466 10.20882096 15.00016466 10.20882096 17 11 C17 11.99 17 12.98 17 14 C17.92232422 14.14695312 17.92232422 14.14695312 18.86328125 14.296875 C25.54716981 15.53344768 25.54716981 15.53344768 28.0625 18.125 C28.371875 18.74375 28.68125 19.3625 29 20 C27.35 19.67 25.7 19.34 24 19 C24 18.34 24 17.68 24 17 C22.4221875 17.0928125 22.4221875 17.0928125 20.8125 17.1875 C16.77539551 16.98895388 15.11637422 16.49309937 12 14 C11.71125 13.319375 11.4225 12.63875 11.125 11.9375 C10.05440454 9.57793574 10.05440454 9.57793574 6.5 9 C3 8 3 8 1.5625 5.875 C1.376875 5.25625 1.19125 4.6375 1 4 C0.01 4 -0.98 4 -2 4 C-1.34 2.68 -0.68 1.36 0 0 Z " fill="#F08021" transform="translate(27,36)"/>
<path d="M0 0 C4.50871015 0.72968904 7.28474359 2.32155933 11 5 C10.63594751 7.70438996 10.31857318 8.74406383 8.15234375 10.484375 C7.05599609 11.11085938 7.05599609 11.11085938 5.9375 11.75 C5.20402344 12.17796875 4.47054687 12.6059375 3.71484375 13.046875 C3.14894531 13.36140625 2.58304687 13.6759375 2 14 C0 12 0 12 -0.1953125 9.1796875 C-0.17210938 8.08914062 -0.14890625 6.99859375 -0.125 5.875 C-0.10695313 4.77929688 -0.08890625 3.68359375 -0.0703125 2.5546875 C-0.04710938 1.71164063 -0.02390625 0.86859375 0 0 Z " fill="#D92C2D" transform="translate(70,41)"/>
<path d="M0 0 C7.90211944 -0.5746996 13.34215406 1.53492991 19.875 5.9375 C22.16031209 8.15559702 23.66468801 10.10682402 25 13 C24.67 13.99 24.34 14.98 24 16 C18.125 12.375 18.125 12.375 17 9 C15.66923011 8.65657551 14.33568021 8.32380126 13 8 C12.34 7.01 11.68 6.02 11 5 C7.40979428 2.40707365 4.37967072 1.50926404 0 1 C0 0.67 0 0.34 0 0 Z " fill="#F8EEBE" transform="translate(39,26)"/>
<path d="M0 0 C5.68829517 0.65009088 8.61579283 3.4287378 12.3125 7.625 C14 10 14 10 14 12 C14.556875 12.061875 15.11375 12.12375 15.6875 12.1875 C18.956767 13.33616138 20.67659558 15.48821144 23 18 C23.33 18.33 23.66 18.66 24 19 C24.07179964 20.51928038 24.08392007 22.04167482 24.0625 23.5625 C24.05347656 24.38878906 24.04445313 25.21507813 24.03515625 26.06640625 C24.02355469 26.70449219 24.01195313 27.34257813 24 28 C23.67 28 23.34 28 23 28 C23 25.36 23 22.72 23 20 C21.35 19.34 19.7 18.68 18 18 C18 17.34 18 16.68 18 16 C17.34 16 16.68 16 16 16 C16 15.34 16 14.68 16 14 C14.68 14 13.36 14 12 14 C12 13.34 12 12.68 12 12 C11.34 12 10.68 12 10 12 C9.938125 11.38125 9.87625 10.7625 9.8125 10.125 C9.4103125 9.073125 9.4103125 9.073125 9 8 C8.195625 7.690625 7.39125 7.38125 6.5625 7.0625 C4 6 4 6 2.8125 3.4375 C2.544375 2.633125 2.27625 1.82875 2 1 C1.34 0.67 0.68 0.34 0 0 Z " fill="#F3CE43" transform="translate(40,30)"/>
<path d="M0 0 C3 2 3 2 3.73046875 5.0390625 C3.88128906 6.22242187 4.03210937 7.40578125 4.1875 8.625 C4.34605469 9.81351563 4.50460938 11.00203125 4.66796875 12.2265625 C4.77753906 13.14179687 4.88710938 14.05703125 5 15 C0.408335 13.32603695 -2.37196582 11.20616974 -6 8 C-5.67 6.68 -5.34 5.36 -5 4 C-4.34 4 -3.68 4 -3 4 C-2.67 3.34 -2.34 2.68 -2 2 C-1.34 1.34 -0.68 0.68 0 0 Z " fill="#2A7949" transform="translate(23,68)"/>
<path d="M0 0 C0.33 0.99 0.66 1.98 1 3 C2.98 2.67 4.96 2.34 7 2 C7 1.34 7 0.68 7 0 C8.65 0.33 10.3 0.66 12 1 C10.65600522 4.05874675 9.23316474 5.96880503 6.6875 8.125 C6.11386719 8.62257813 5.54023437 9.12015625 4.94921875 9.6328125 C3 11 3 11 -2 13 C-1.34 8.71 -0.68 4.42 0 0 Z " fill="#297F46" transform="translate(61,70)"/>
<path d="M0 0 C3.65361496 0.15885282 5.52020823 0.60859093 8.375 2.9375 C10 5 10 5 10 7 C10.804375 7.2475 11.60875 7.495 12.4375 7.75 C15 9 15 9 15.8125 11.125 C15.874375 11.74375 15.93625 12.3625 16 13 C16.66 13 17.32 13 18 13 C17.67 13.66 17.34 14.32 17 15 C15.53633658 14.60246179 14.0791065 14.18118616 12.625 13.75 C11.81289063 13.51796875 11.00078125 13.2859375 10.1640625 13.046875 C8 12 8 12 6.7109375 10.078125 C6 8 6 8 6 5 C5.01 5 4.02 5 3 5 C3 4.34 3 3.68 3 3 C1.35 2.67 -0.3 2.34 -2 2 C-1.34 1.34 -0.68 0.68 0 0 Z " fill="#F4BD23" transform="translate(34,29)"/>
<path d="M0 0 C-0.33 3.63 -0.66 7.26 -1 11 C-5.92129494 10.01574101 -7.40538913 9.1837982 -11 6 C-9.89210592 2.67631776 -9.51563783 2.38436907 -6.625 0.75 C-6.01914063 0.39421875 -5.41328125 0.0384375 -4.7890625 -0.328125 C-3 -1 -3 -1 0 0 Z " fill="#D33734" transform="translate(17,42)"/>
<path d="M0 0 C0.33 0.99 0.66 1.98 1 3 C-0.3125 4.5 -0.3125 4.5 -2 6 C-2.99 6 -3.98 6 -5 6 C-5.2475 7.0725 -5.495 8.145 -5.75 9.25 C-7.00475313 13.01425938 -7.87958216 14.63604709 -11 17 C-11.99 17 -12.98 17 -14 17 C-13.19009326 11.04665953 -10.05628285 7.27888374 -6 3 C-3.98675029 1.60385509 -2.31671862 0.84757998 0 0 Z " fill="#23357A" transform="translate(24,16)"/>
<path d="M0 0 C0.99 0.66 1.98 1.32 3 2 C3 2.66 3 3.32 3 4 C3.56203125 4.10183594 4.1240625 4.20367187 4.703125 4.30859375 C7.45339488 5.13648111 9.39095874 6.43198618 11.75 8.0625 C12.94882812 8.88427734 12.94882812 8.88427734 14.171875 9.72265625 C14.77515625 10.14417969 15.3784375 10.56570312 16 11 C15.24432948 14.78630702 13.87402727 16.4041044 11 19 C10.731875 17.7625 10.46375 16.525 10.1875 15.25 C9.01279662 10.6093317 9.01279662 10.6093317 6 7 C3.05411851 5.78914836 0.0679894 4.84900336 -3 4 C-3 3.34 -3 2.68 -3 2 C-2.01 2 -1.02 2 0 2 C0 1.34 0 0.68 0 0 Z " fill="#EC9928" transform="translate(47,46)"/>
<path d="M0 0 C0.33 0.99 0.66 1.98 1 3 C0.01 4.485 0.01 4.485 -1 6 C-3.6015625 6.29296875 -3.6015625 6.29296875 -6.625 6.1875 C-8.12933594 6.14689453 -8.12933594 6.14689453 -9.6640625 6.10546875 C-10.82035156 6.05326172 -10.82035156 6.05326172 -12 6 C-12.66 4.68 -13.32 3.36 -14 2 C-11.29816945 0.64908472 -8.88191794 0.66141942 -5.875 0.4375 C-4.77929688 0.35371094 -3.68359375 0.26992187 -2.5546875 0.18359375 C-1.29011719 0.09271484 -1.29011719 0.09271484 0 0 Z " fill="#217A41" transform="translate(50,80)"/>
<path d="M0 0 C3.81300782 3.2870757 5.22972246 6.39727838 7 11 C1.71472524 10.46068625 -2.33990517 9.46710903 -7 7 C-8.4375 4.8125 -8.4375 4.8125 -9 3 C-7.8553125 3.495 -7.8553125 3.495 -6.6875 4 C-4.00930865 5.17436686 -4.00930865 5.17436686 -1 5 C-0.67 3.35 -0.34 1.7 0 0 Z " fill="#1F2560" transform="translate(72,24)"/>
<path d="M0 0 C5.625 2.25 5.625 2.25 8 5 C7.3125 7.375 7.3125 7.375 6 10 C4.35 10.66 2.7 11.32 1 12 C0.67 8.04 0.34 4.08 0 0 Z " fill="#3D6AAC" transform="translate(60,14)"/>
<path d="M0 0 C0.66 0.66 1.32 1.32 2 2 C-0.88767378 6.64538825 -3.78927963 7.99308755 -8.78125 9.6171875 C-11.19587141 10.03379472 -12.69445254 9.76502257 -15 9 C-14.34 8.01 -13.68 7.02 -13 6 C-13 6.66 -13 7.32 -13 8 C-10.09639678 6.14559571 -10.09639678 6.14559571 -8 4.3125 C-7.34 3.879375 -6.68 3.44625 -6 3 C-5.01 3.33 -4.02 3.66 -3 4 C-3 3.34 -3 2.68 -3 2 C-2.01 1.34 -1.02 0.68 0 0 Z " fill="#161C57" transform="translate(23,25)"/>
<path d="M0 0 C0.33 0.66 0.66 1.32 1 2 C1.99 2 2.98 2 4 2 C6.1875 5 6.1875 5 8 8 C7.34 8 6.68 8 6 8 C5.67 8.66 5.34 9.32 5 10 C5 9.34 5 8.68 5 8 C2.03 7.505 2.03 7.505 -1 7 C-1 9.31 -1 11.62 -1 14 C-1.33 14 -1.66 14 -2 14 C-2.1799928 8.78020872 -1.97094808 4.92737019 0 0 Z " fill="#E3542F" transform="translate(24,38)"/>
<path d="M0 0 C1.43793392 0.31049726 2.8753318 0.6234776 4.3125 0.9375 C5.11300781 1.11152344 5.91351563 1.28554688 6.73828125 1.46484375 C9 2 9 2 12 3 C13.6875 6.0625 13.6875 6.0625 15 9 C14.34 9 13.68 9 13 9 C12.67 8.34 12.34 7.68 12 7 C9.97536745 6.34786708 9.97536745 6.34786708 8 6 C8 5.01 8 4.02 8 3 C6.35 3 4.7 3 3 3 C3.33 4.98 3.66 6.96 4 9 C1.47740939 7.02579865 1.0070192 6.03254358 0.3125 2.8125 C0.209375 1.884375 0.10625 0.95625 0 0 Z " fill="#50A55B" transform="translate(8,59)"/>
<path d="M0 0 C8.56097561 4.12195122 8.56097561 4.12195122 10 7 C10.99 7.33 11.98 7.66 13 8 C13.433125 8.61875 13.86625 9.2375 14.3125 9.875 C16.4806663 12.60528349 18.84943995 13.59975109 22 15 C21.67 15.99 21.34 16.98 21 18 C7.52313883 8.04627767 7.52313883 8.04627767 6 5 C5.175 4.505 4.35 4.01 3.5 3.5 C1 2 1 2 0 0 Z " fill="#F4E499" transform="translate(43,27)"/>
<path d="M0 0 C0.66 0 1.32 0 2 0 C2.50403768 1.29009643 3.00309926 2.58213789 3.5 3.875 C3.7784375 4.59429688 4.056875 5.31359375 4.34375 6.0546875 C5 8 5 8 5 10 C-1.27 10 -7.54 10 -14 10 C-13.67 8.35 -13.34 6.7 -13 5 C-12.67 5.99 -12.34 6.98 -12 8 C-11.41992188 7.91621094 -10.83984375 7.83242188 -10.2421875 7.74609375 C-5.57684697 7.13790579 -1.64557883 6.92794335 3 8 C2.505 7.05125 2.01 6.1025 1.5 5.125 C0 2 0 2 0 0 Z " fill="#05093F" transform="translate(48,10)"/>
<path d="M0 0 C0.66 0 1.32 0 2 0 C2 1.65 2 3.3 2 5 C2.66 5 3.32 5 4 5 C4.2475 5.5775 4.495 6.155 4.75 6.75 C6.18299988 9.32939979 7.78424676 11.06121592 10 13 C10.66 13 11.32 13 12 13 C13.625 15 13.625 15 15 17 C9.69854935 16.67869996 6.49582502 13.72024835 3 10 C0.63597274 6.18705281 0 4.52645405 0 0 Z " fill="#CE3B38" transform="translate(23,52)"/>
<path d="M0 0 C1.32 0.33 2.64 0.66 4 1 C4.33 3.31 4.66 5.62 5 8 C2.69 7.67 0.38 7.34 -2 7 C-2.33 5.68 -2.66 4.36 -3 3 C-2.01 2.67 -1.02 2.34 0 2 C0 1.34 0 0.68 0 0 Z " fill="#1B7F3B" transform="translate(20,70)"/>
<path d="M0 0 C-0.99 0.33 -1.98 0.66 -3 1 C-3 1.66 -3 2.32 -3 3 C-3.99 3.33 -4.98 3.66 -6 4 C-7.38576923 5.62332967 -8.72641268 7.28724465 -10 9 C-10.99 8.34 -11.98 7.68 -13 7 C-8.86474947 1.74711419 -6.98853363 -0.18887929 0 0 Z " fill="#3F9F54" transform="translate(75,62)"/>
<path d="M0 0 C1.32 0.66 2.64 1.32 4 2 C3.34 3.65 2.68 5.3 2 7 C0.824375 6.9690625 0.824375 6.9690625 -0.375 6.9375 C-2.98114961 6.81315937 -2.98114961 6.81315937 -5 8 C-3.8141763 4.62496331 -2.72426311 2.35277269 0 0 Z " fill="#E59837" transform="translate(30,30)"/>
<path d="M0 0 C5.67832514 1.24923153 8.86371542 2.86371542 13 7 C14.375 9.8125 14.375 9.8125 15 12 C13.87043002 11.23587913 12.74651022 10.46340197 11.625 9.6875 C10.99851562 9.25824219 10.37203125 8.82898437 9.7265625 8.38671875 C8 7 8 7 6 4 C2.94570927 2.78715124 2.94570927 2.78715124 0 2 C0 1.34 0 0.68 0 0 Z " fill="#FDFAEA" transform="translate(48,27)"/>
<path d="M0 0 C2.475 0.99 2.475 0.99 5 2 C5 4.31 5 6.62 5 9 C2.5 7.875 2.5 7.875 0 6 C-0.3125 2.8125 -0.3125 2.8125 0 0 Z " fill="#F3BD25" transform="translate(58,48)"/>
<path d="M0 0 C3.65361496 0.15885282 5.52020823 0.60859093 8.375 2.9375 C10 5 10 5 10 7 C10.99 7.33 11.98 7.66 13 8 C12.01 8.495 12.01 8.495 11 9 C8.875 8.0625 8.875 8.0625 7 7 C7 5.68 7 4.36 7 3 C4.03 2.67 1.06 2.34 -2 2 C-1.34 1.34 -0.68 0.68 0 0 Z " fill="#F2C72F" transform="translate(34,29)"/>
<path d="M0 0 C3.81300782 3.2870757 5.22972246 6.39727838 7 11 C2.94393835 10.53199289 -0.46588679 10.12046792 -4 8 C1.75 7.875 1.75 7.875 4 9 C3.34 7.88625 2.68 6.7725 2 5.625 C0 2.25 0 2.25 0 0 Z " fill="#070935" transform="translate(72,24)"/>
<path d="M0 0 C3.63 0 7.26 0 11 0 C11.33 0.66 11.66 1.32 12 2 C10.37585622 2.19477739 8.75063577 2.38059458 7.125 2.5625 C6.22007813 2.66691406 5.31515625 2.77132812 4.3828125 2.87890625 C2 3 2 3 0 2 C0 1.34 0 0.68 0 0 Z " fill="#E72E25" transform="translate(36,66)"/>
<path d="M0 0 C0.99 0.495 0.99 0.495 2 1 C2 1.66 2 2.32 2 3 C3.32 3 4.64 3 6 3 C5.67 4.32 5.34 5.64 5 7 C5.66 7 6.32 7 7 7 C6.67 7.99 6.34 8.98 6 10 C4 8.6875 4 8.6875 2 7 C2 6.01 2 5.02 2 4 C1.34 4 0.68 4 0 4 C0 2.68 0 1.36 0 0 Z " fill="#EB2825" transform="translate(25,53)"/>
<path d="M0 0 C2.64 0 5.28 0 8 0 C8 0.66 8 1.32 8 2 C2.25 5 2.25 5 0 5 C0 3.35 0 1.7 0 0 Z " fill="#2C5AA3" transform="translate(38,10)"/>
<path d="M0 0 C2.475 0.495 2.475 0.495 5 1 C4.01 1.33 3.02 1.66 2 2 C2.103125 3.27875 2.20625 4.5575 2.3125 5.875 C2.37050781 6.59429687 2.42851563 7.31359375 2.48828125 8.0546875 C2.87393036 10.39519216 2.87393036 10.39519216 6 12 C4.35 12.66 2.7 13.32 1 14 C-0.38226016 11.23547967 -0.09525387 8.9538637 -0.0625 5.875 C-0.05347656 4.77929688 -0.04445313 3.68359375 -0.03515625 2.5546875 C-0.02355469 1.71164063 -0.01195313 0.86859375 0 0 Z " fill="#C2433E" transform="translate(70,41)"/>
<path d="M0 0 C-2 2 -2 2 -4.8203125 2.1953125 C-5.91085938 2.17210938 -7.00140625 2.14890625 -8.125 2.125 C-9.22070312 2.10695313 -10.31640625 2.08890625 -11.4453125 2.0703125 C-12.28835937 2.04710938 -13.13140625 2.02390625 -14 2 C-13.67 1.34 -13.34 0.68 -13 0 C-11.07421875 -0.44921875 -11.07421875 -0.44921875 -8.6875 -0.6875 C-7.51767578 -0.81705078 -7.51767578 -0.81705078 -6.32421875 -0.94921875 C-4.00712895 -0.99984424 -2.20712606 -0.67173402 0 0 Z " fill="#269344" transform="translate(52,79)"/>
<path d="M0 0 C0.66 0 1.32 0 2 0 C1.67 2.31 1.34 4.62 1 7 C0.34 7 -0.32 7 -1 7 C-1.33 7.66 -1.66 8.32 -2 9 C-2.99 8.34 -3.98 7.68 -5 7 C-4.0409375 6.6596875 -4.0409375 6.6596875 -3.0625 6.3125 C-0.72806339 5.14749104 -0.72806339 5.14749104 -0.25 2.375 C-0.1675 1.59125 -0.085 0.8075 0 0 Z " fill="#234A95" transform="translate(67,19)"/>
<path d="M0 0 C0.66 0.66 1.32 1.32 2 2 C1.7578125 4.6015625 1.7578125 4.6015625 1.125 7.625 C0.92132812 8.62789062 0.71765625 9.63078125 0.5078125 10.6640625 C0.34023438 11.43492188 0.17265625 12.20578125 0 13 C-0.33 13 -0.66 13 -1 13 C-1.33 10.03 -1.66 7.06 -2 4 C-3.32 4.33 -4.64 4.66 -6 5 C-5.195625 4.360625 -4.39125 3.72125 -3.5625 3.0625 C-1.7249496 1.59396498 -1.7249496 1.59396498 0 0 Z " fill="#181C4A" transform="translate(26,13)"/>
<path d="M0 0 C1.32 0 2.64 0 4 0 C4.33 1.65 4.66 3.3 5 5 C3.02 5 1.04 5 -1 5 C-1.33 4.34 -1.66 3.68 -2 3 C-1.34 2.01 -0.68 1.02 0 0 Z " fill="#262462" transform="translate(46,13)"/>
<path d="M0 0 C1.65 0 3.3 0 5 0 C5 1.65 5 3.3 5 5 C3.68 5.33 2.36 5.66 1 6 C0.67 4.02 0.34 2.04 0 0 Z " fill="#34AB4A" transform="translate(11,62)"/>
<path d="M0 0 C1.65 0.33 3.3 0.66 5 1 C4.01 2.32 3.02 3.64 2 5 C0.35 4.67 -1.3 4.34 -3 4 C-3 3.34 -3 2.68 -3 2 C-2.01 2 -1.02 2 0 2 C0 1.34 0 0.68 0 0 Z " fill="#289A45" transform="translate(16,65)"/>
<path d="M0 0 C-1.15585285 3.91211733 -2.35534962 6.8745041 -5 10 C-5 8.02 -5 6.04 -5 4 C-4.34 3.67 -3.68 3.34 -3 3 C-3.66 2.34 -4.32 1.68 -5 1 C-3 0 -3 0 0 0 Z " fill="#358D4A" transform="translate(79,60)"/>
<path d="M0 0 C1.32 0.66 2.64 1.32 4 2 C4 2.66 4 3.32 4 4 C1.09451118 6.04169485 -0.40142046 7 -4 7 C-4 6.34 -4 5.68 -4 5 C-3.01 4.67 -2.02 4.34 -1 4 C-0.26676204 1.98491642 -0.26676204 1.98491642 0 0 Z " fill="#DA6433" transform="translate(54,62)"/>
<path d="M0 0 C3.2542015 2.83430453 4.5206753 4.68607774 5 9 C3 7.625 3 7.625 1 6 C1 5.34 1 4.68 1 4 C0.01 4 -0.98 4 -2 4 C-1.34 2.68 -0.68 1.36 0 0 Z " fill="#EA6D22" transform="translate(27,36)"/>
<path d="M0 0 C4.83256305 0.41421969 6.82679218 2.46413986 10 6 C7.07120629 5.37240135 4.63904371 4.41377341 2 3 C2 2.34 2 1.68 2 1 C1.34 0.67 0.68 0.34 0 0 Z " fill="#F4D555" transform="translate(40,30)"/>
<path d="M0 0 C0.66 0.33 1.32 0.66 2 1 C1.01 1.33 0.02 1.66 -1 2 C-1 2.99 -1 3.98 -1 5 C-2.98 5.33 -4.96 5.66 -7 6 C-6.67 5.01 -6.34 4.02 -6 3 C-5.01 3 -4.02 3 -3 3 C-3 2.34 -3 1.68 -3 1 C-2.01 0.67 -1.02 0.34 0 0 Z " fill="#2BA146" transform="translate(75,62)"/>
<path d="M0 0 C0.66 0.66 1.32 1.32 2 2 C-0.23407889 5.35111834 -1.26215824 6.81553956 -5.25 7.8125 C-6.61125 7.9053125 -6.61125 7.9053125 -8 8 C-7.01 7.34 -6.02 6.68 -5 6 C-4.34 5.34 -3.68 4.68 -3 4 C-3 3.34 -3 2.68 -3 2 C-2.01 1.34 -1.02 0.68 0 0 Z " fill="#0F1041" transform="translate(23,25)"/>
<path d="M0 0 C1.8125 0.125 1.8125 0.125 4 1 C5.75 4.0625 5.75 4.0625 7 7 C6.34 7 5.68 7 5 7 C4.67 6.34 4.34 5.68 4 5 C1.97536745 4.34786708 1.97536745 4.34786708 0 4 C0 2.68 0 1.36 0 0 Z " fill="#3F9657" transform="translate(16,61)"/>
<path d="M0 0 C0.99 0 1.98 0 3 0 C3 1.65 3 3.3 3 5 C1.35 4.67 -0.3 4.34 -2 4 C-2 3.34 -2 2.68 -2 2 C-1.34 2 -0.68 2 0 2 C0 1.34 0 0.68 0 0 Z " fill="#E42321" transform="translate(12,46)"/>
<path d="M0 0 C1.98 0.495 1.98 0.495 4 1 C3.67 1.99 3.34 2.98 3 4 C0.9375 4.6875 0.9375 4.6875 -1 5 C-0.67 3.35 -0.34 1.7 0 0 Z " fill="#268B43" transform="translate(19,67)"/>
<path d="M0 0 C0.99 0 1.98 0 3 0 C2.625 2.9375 2.625 2.9375 2 6 C1.01 6.495 1.01 6.495 0 7 C0 4.69 0 2.38 0 0 Z " fill="#EC3527" transform="translate(23,45)"/>
</svg>
