<?xml version="1.0" encoding="UTF-8"?>
<svg version="1.1" xmlns="http://www.w3.org/2000/svg" width="160" height="160">
<path d="M0 0 C52.8 0 105.6 0 160 0 C160 52.8 160 105.6 160 160 C107.2 160 54.4 160 0 160 C0 107.2 0 54.4 0 0 Z " fill="#010102" transform="translate(0,0)"/>
<path d="M0 0 C24.42 0 48.84 0 74 0 C74 0.33 74 0.66 74 1 C72.97261719 1.17015625 71.94523437 1.3403125 70.88671875 1.515625 C54.24089634 4.37892407 39.95703525 9.81527641 27 21 C26.00033203 21.85658203 26.00033203 21.85658203 24.98046875 22.73046875 C11.44002819 35.25604394 2.35596506 54.68971582 1.56640625 73.078125 C1.54271729 75.13528069 1.54188785 77.19281118 1.5625 79.25 C1.57152344 80.34046631 1.58054688 81.43093262 1.58984375 82.55444336 C2.04506638 103.92619729 10.23568042 121.90536531 25.11328125 137.16796875 C42.47129316 153.57398732 62.85917869 158.71527489 86.0078125 158.3046875 C104.01456541 157.6206005 120.73767393 150.09939822 134 138 C134.91265625 137.22462891 134.91265625 137.22462891 135.84375 136.43359375 C149.58540747 123.97240891 157.29205908 104.1041738 159 86 C159.33 86 159.66 86 160 86 C160 110.42 160 134.84 160 160 C107.2 160 54.4 160 0 160 C0 107.2 0 54.4 0 0 Z " fill="#F3F3F3" transform="translate(0,0)"/>
<path d="M0 0 C6.01018853 4.04884838 10.3131272 9.9152693 12.50390625 16.859375 C14.10107752 25.65259266 12.25701326 33.6128787 7.296875 41.00390625 C2.63201976 46.68137641 -2.44514821 50.34422812 -9.83984375 51.2890625 C-18.64635019 51.49060444 -25.56723724 50.77539601 -32.640625 45.25390625 C-33.465625 44.44953125 -34.290625 43.64515625 -35.140625 42.81640625 C-35.140625 42.15640625 -35.140625 41.49640625 -35.140625 40.81640625 C-35.800625 40.81640625 -36.460625 40.81640625 -37.140625 40.81640625 C-41.44965119 31.61713639 -43.83458026 24.30282772 -40.453125 14.25390625 C-37.32090783 6.27602906 -32.78990462 1.69223627 -25.140625 -2.18359375 C-16.13007124 -5.50327145 -8.29428191 -4.58607193 0 0 Z " fill="#FC6C06" transform="translate(95.140625,56.18359375)"/>
<path d="M0 0 C24.09 0 48.18 0 73 0 C73 24.42 73 48.84 73 74 C72.67 74 72.34 74 72 74 C71.85304688 72.94683594 71.70609375 71.89367187 71.5546875 70.80859375 C68.21613255 48.64472969 58.67829087 29.57781479 40.20703125 15.9375 C37.52115827 14.17974956 34.80279391 12.56349119 32 11 C31.21238281 10.53980469 30.42476562 10.07960938 29.61328125 9.60546875 C20.50286787 4.62109383 10.23737299 2.31416855 0 1 C0 0.67 0 0.34 0 0 Z " fill="#F3F3F3" transform="translate(87,0)"/>
<path d="M0 0 C6.01018853 4.04884838 10.3131272 9.9152693 12.50390625 16.859375 C13.76252597 23.78869896 12.95774263 30.46666518 9.859375 36.81640625 C8.25390625 38.57421875 8.25390625 38.57421875 6.859375 39.81640625 C6.529375 38.82640625 6.199375 37.83640625 5.859375 36.81640625 C4.869375 36.32140625 4.869375 36.32140625 3.859375 35.81640625 C3.529375 35.48640625 3.199375 35.15640625 2.859375 34.81640625 C2.859375 36.46640625 2.859375 38.11640625 2.859375 39.81640625 C1.869375 39.15640625 0.879375 38.49640625 -0.140625 37.81640625 C-0.140625 37.15640625 -0.140625 36.49640625 -0.140625 35.81640625 C-2.120625 35.81640625 -4.100625 35.81640625 -6.140625 35.81640625 C-7.130625 31.85640625 -8.120625 27.89640625 -9.140625 23.81640625 C-9.800625 23.81640625 -10.460625 23.81640625 -11.140625 23.81640625 C-11.470625 22.49640625 -11.800625 21.17640625 -12.140625 19.81640625 C-12.800625 19.81640625 -13.460625 19.81640625 -14.140625 19.81640625 C-14.470625 21.13640625 -14.800625 22.45640625 -15.140625 23.81640625 C-16.90525183 20.7283093 -17.140625 19.58328489 -17.140625 15.81640625 C-21.760625 15.81640625 -26.380625 15.81640625 -31.140625 15.81640625 C-30.810625 14.16640625 -30.480625 12.51640625 -30.140625 10.81640625 C-30.800625 10.81640625 -31.460625 10.81640625 -32.140625 10.81640625 C-32.800625 9.16640625 -33.460625 7.51640625 -34.140625 5.81640625 C-33.150625 5.48640625 -32.160625 5.15640625 -31.140625 4.81640625 C-31.016875 4.19765625 -30.893125 3.57890625 -30.765625 2.94140625 C-30.140625 0.81640625 -30.140625 0.81640625 -28.015625 -0.80859375 C-18.23812681 -5.48478854 -9.39072363 -5.19231617 0 0 Z " fill="#FDAB06" transform="translate(95.140625,56.18359375)"/>
<path d="M0 0 C1.65 0 3.3 0 5 0 C5 1.98 5 3.96 5 6 C5.99 6 6.98 6 8 6 C8.103125 6.639375 8.20625 7.27875 8.3125 7.9375 C8.539375 8.618125 8.76625 9.29875 9 10 C9.99 10.33 10.98 10.66 12 11 C12 12.65 12 14.3 12 16 C13.423125 15.9690625 13.423125 15.9690625 14.875 15.9375 C18 16 18 16 20 17 C20 18.65 20 20.3 20 22 C20.99 22 21.98 22 23 22 C23 22.66 23 23.32 23 24 C24.65 24 26.3 24 28 24 C28 25.32 28 26.64 28 28 C29.27875 28.185625 30.5575 28.37125 31.875 28.5625 C32.59429687 28.66691406 33.31359375 28.77132812 34.0546875 28.87890625 C36.08140667 29.1684297 36.08140667 29.1684297 38 28 C38 28.66 38 29.32 38 30 C38.66 30.33 39.32 30.66 40 31 C33.29384661 36.23407093 26.22065009 35.73112072 18 35 C12.26623536 33.85324707 8.12351821 31.02043026 4 27 C4 26.34 4 25.68 4 25 C3.34 25 2.68 25 2 25 C-1.43664443 17.66316375 -3.16079293 12.2004394 -3 4 C-2.34 4 -1.68 4 -1 4 C-0.67 2.68 -0.34 1.36 0 0 Z " fill="#F62C08" transform="translate(56,72)"/>
<path d="M0 0 C5.57407818 3.75505648 9.34167634 8.57810845 11.859375 14.81640625 C12.30300237 18.01146718 12.17302038 20.57540402 11.859375 23.81640625 C10.539375 23.81640625 9.219375 23.81640625 7.859375 23.81640625 C7.859375 24.47640625 7.859375 25.13640625 7.859375 25.81640625 C8.849375 25.81640625 9.839375 25.81640625 10.859375 25.81640625 C10.859375 27.79640625 10.859375 29.77640625 10.859375 31.81640625 C10.199375 30.49640625 9.539375 29.17640625 8.859375 27.81640625 C6.879375 27.81640625 4.899375 27.81640625 2.859375 27.81640625 C2.859375 26.49640625 2.859375 25.17640625 2.859375 23.81640625 C2.199375 23.81640625 1.539375 23.81640625 0.859375 23.81640625 C-4.140625 18.34021577 -4.140625 18.34021577 -4.140625 15.81640625 C-5.460625 15.81640625 -6.780625 15.81640625 -8.140625 15.81640625 C-9.5149541 14.52536982 -10.84958857 13.19073535 -12.140625 11.81640625 C-13.130625 11.48640625 -14.120625 11.15640625 -15.140625 10.81640625 C-15.140625 9.82640625 -15.140625 8.83640625 -15.140625 7.81640625 C-15.800625 7.81640625 -16.460625 7.81640625 -17.140625 7.81640625 C-17.40875 7.19765625 -17.676875 6.57890625 -17.953125 5.94140625 C-19.09619348 3.51688295 -19.09619348 3.51688295 -22.140625 1.81640625 C-22.140625 1.15640625 -22.140625 0.49640625 -22.140625 -0.18359375 C-23.790625 -0.18359375 -25.440625 -0.18359375 -27.140625 -0.18359375 C-19.89921561 -7.42500314 -7.95424892 -4.39806099 0 0 Z " fill="#FED11D" transform="translate(95.140625,56.18359375)"/>
<path d="M0 0 C0.66 0.33 1.32 0.66 2 1 C1.01 2.65 0.02 4.3 -1 6 C-0.01 6.33 0.98 6.66 2 7 C1.67 8.32 1.34 9.64 1 11 C0.34 11 -0.32 11 -1 11 C-1.19335938 11.60328125 -1.38671875 12.2065625 -1.5859375 12.828125 C-1.84632812 13.62734375 -2.10671875 14.4265625 -2.375 15.25 C-2.75785156 16.43335938 -2.75785156 16.43335938 -3.1484375 17.640625 C-3.95173667 19.86627958 -4.89711662 21.90931672 -6 24 C-8.10241603 24.13496251 -10.2072961 24.23197307 -12.3125 24.3125 C-13.48425781 24.37050781 -14.65601562 24.42851562 -15.86328125 24.48828125 C-19 24 -19 24 -20.91796875 21.48046875 C-21.27503906 20.66191406 -21.63210937 19.84335938 -22 19 C-22.33 20.32 -22.66 21.64 -23 23 C-25 20 -25 20 -25 16 C-26.98 16.99 -26.98 16.99 -29 18 C-29.1875 15.625 -29.1875 15.625 -29 13 C-28.01 12.34 -27.02 11.68 -26 11 C-25.34 10.01 -24.68 9.02 -24 8 C-21.375 6.8125 -21.375 6.8125 -19 6 C-21.31 5.67 -23.62 5.34 -26 5 C-25.01 3.68 -24.02 2.36 -23 1 C-22.4946875 1.16113281 -21.989375 1.32226562 -21.46875 1.48828125 C-18.12271723 2.18184184 -14.91519441 2.17069294 -11.5 2.1875 C-9.53546875 2.20876953 -9.53546875 2.20876953 -7.53125 2.23046875 C-4.25354299 2.01654761 -2.77410882 1.55062215 0 0 Z " fill="#040607" transform="translate(93,104)"/>
<path d="M0 0 C0.33 4.95 0.66 9.9 1 15 C1.99 15 2.98 15 4 15 C4.66 13.68 5.32 12.36 6 11 C6.103125 11.639375 6.20625 12.27875 6.3125 12.9375 C6.539375 13.618125 6.76625 14.29875 7 15 C7.99 15.33 8.98 15.66 10 16 C10.94921875 18.06640625 10.94921875 18.06640625 11.6875 20.5625 C11.93886719 21.38878906 12.19023438 22.21507813 12.44921875 23.06640625 C12.63097656 23.70449219 12.81273438 24.34257813 13 25 C13.66 25 14.32 25 15 25 C16.7143618 26.95927063 18.38405168 28.95880212 20 31 C18.25 31.75 18.25 31.75 16 32 C13.75 30.0625 13.75 30.0625 12 28 C11.34 29.32 10.68 30.64 10 32 C10.99 32 11.98 32 13 32 C13 32.66 13 33.32 13 34 C10.8125 33.9375 10.8125 33.9375 8 33 C6.8359375 31.4453125 6.8359375 31.4453125 5.6875 29.5625 C3.74913039 26.56628199 2.49443602 25.48735215 -1 24.6875 C-2.33322781 24.45772021 -3.66655462 24.22851382 -5 24 C-6.68076231 23.36971413 -8.35544725 22.71949183 -10 22 C-9.938125 21.21625 -9.87625 20.4325 -9.8125 19.625 C-9.874375 18.75875 -9.93625 17.8925 -10 17 C-10.99 16.34 -11.98 15.68 -13 15 C-13.149011 10.80906575 -13.16295396 7.31730483 -10.29296875 4.06640625 C-6.55995308 1.17834032 -4.85762184 0 0 0 Z " fill="#080405" transform="translate(45,72)"/>
<path d="M0 0 C7.53986623 0.80409702 13.04636699 2.10752237 18.1875 7.9375 C22.40667419 13.73018705 23.39485149 18.99756723 24 26 C24.33 26.99 24.66 27.98 25 29 C15.0218287 25.34774466 8.34936745 18.00351283 3 9 C1.70743094 5.99412632 0.83312854 3.17630255 0 0 Z " fill="#0A840C" transform="translate(35,94)"/>
<path d="M0 0 C-3.30074061 10.83848961 -9.87653982 19.3260862 -19 26 C-21.8046875 27.24609375 -21.8046875 27.24609375 -24 28 C-23.76321777 26.07191616 -23.52325024 24.14415966 -23.265625 22.21875 C-23.03585105 20.29946167 -22.91409588 18.36782174 -22.8125 16.4375 C-21.84807458 12.35723863 -20.21423947 10.46303521 -17.375 7.48046875 C-15.89698225 6.02812773 -15.89698225 6.02812773 -15 4 C-12.88262268 3.21066478 -10.72945068 2.51582879 -8.5625 1.875 C-7.38816406 1.52179688 -6.21382812 1.16859375 -5.00390625 0.8046875 C-2 0 -2 0 0 0 Z " fill="#1C991F" transform="translate(125,95)"/>
<path d="M0 0 C8.11696657 2.89289812 15.17626874 9.93142981 20 17 C21.04609004 19.7198341 21.53416589 22.10147665 22 25 C14.96578477 24.38296358 8.94178087 23.21312382 3.625 18.1875 C-0.55429506 13.05230234 0.01753841 6.32259603 0 0 Z " fill="#101564" transform="translate(102,38)"/>
<path d="M0 0 C-0.2821289 2.27203802 -0.57602856 4.54261684 -0.875 6.8125 C-1.03742187 8.07707031 -1.19984375 9.34164062 -1.3671875 10.64453125 C-2 14 -2 14 -4 17 C-4.66 17 -5.32 17 -6 17 C-6.309375 18.175625 -6.309375 18.175625 -6.625 19.375 C-8 22 -8 22 -10.5625 23.1875 C-14.70056466 24.16558801 -18.83761415 25.13052385 -23 26 C-21.17341153 19.39505609 -18.21328164 14.60123014 -13.625 9.625 C-13.16697998 9.12581055 -12.70895996 8.62662109 -12.23706055 8.11230469 C-4.47621613 0 -4.47621613 0 0 0 Z " fill="#1B328A" transform="translate(59,37)"/>
<path d="M0 0 C7.92437564 -0.76687506 12.78966519 0.98962819 19 6 C24.13065596 11.60840935 26.14168571 15.34897174 26 23 C23.36 22.01 20.72 21.02 18 20 C18 19.34 18 18.68 18 18 C17.34 18 16.68 18 16 18 C16 17.34 16 16.68 16 16 C15.360625 15.773125 14.72125 15.54625 14.0625 15.3125 C12 14 12 14 11.25 11.375 C11.1675 10.59125 11.085 9.8075 11 9 C10.01 8.67 9.02 8.34 8 8 C8 7.34 8 6.68 8 6 C7.01 5.67 6.02 5.34 5 5 C3.4375 3.5625 3.4375 3.5625 2 2 C1.34 1.34 0.68 0.68 0 0 Z " fill="#FDEFAF" transform="translate(80,53)"/>
<path d="M0 0 C4.95 0 9.9 0 15 0 C18 6 18 6 18 12 C10.74 12 3.48 12 -4 12 C-3 6 -3 6 0 0 Z " fill="#0F0F5E" transform="translate(73,32)"/>
<path d="M0 0 C7.26 0 14.52 0 22 0 C20.66666667 4 19.33333333 8 18 12 C13.71 12 9.42 12 5 12 C2.34324249 7.62920538 1.02961758 5.14808788 0 0 Z " fill="#269528" transform="translate(69,116)"/>
<path d="M0 0 C-0.66 0.66 -1.32 1.32 -2 2 C-0.6078125 3.1446875 -0.6078125 3.1446875 0.8125 4.3125 C6.71552975 9.27104499 6.71552975 9.27104499 8 12.5625 C8.86272409 15.31238322 8.86272409 15.31238322 12 17 C12 17.66 12 18.32 12 19 C12.66 19 13.32 19 14 19 C14.33 19.66 14.66 20.32 15 21 C16.97888961 21.72693904 18.97954558 22.39816251 21 23 C21.66 21.68 22.32 20.36 23 19 C23 21.97 23 24.94 23 28 C19.93606987 28.25532751 18.36766788 28.21861333 15.6875 26.625 C15.130625 26.08875 14.57375 25.5525 14 25 C14 24.34 14 23.68 14 23 C13.34 23 12.68 23 12 23 C12 22.01 12 21.02 12 20 C11.34 20 10.68 20 10 20 C8.64613064 18.34997172 7.31321858 16.6825613 6 15 C5.34 14.67 4.68 14.34 4 14 C4 13.34 4 12.68 4 12 C3.01 12 2.02 12 1 12 C1 11.34 1 10.68 1 10 C-0.11375 9.566875 -0.11375 9.566875 -1.25 9.125 C-7.77142857 6.45714286 -7.77142857 6.45714286 -9 4 C-11.31 4 -13.62 4 -16 4 C-11.71327571 -0.28672429 -5.76159905 -0.23516731 0 0 Z " fill="#EDD36C" transform="translate(84,52)"/>
<path d="M0 0 C-0.2821289 2.27203802 -0.57602856 4.54261684 -0.875 6.8125 C-1.03742187 8.07707031 -1.19984375 9.34164062 -1.3671875 10.64453125 C-2 14 -2 14 -4 17 C-4.66 17 -5.32 17 -6 17 C-6.20625 17.78375 -6.4125 18.5675 -6.625 19.375 C-8 22 -8 22 -10.8125 23.3125 C-13.67796925 23.93054239 -16.08563333 24.17143333 -19 24 C-16 22 -16 22 -14 21 C-13.9175 20.0925 -13.835 19.185 -13.75 18.25 C-12.70641588 13.72780217 -10.62568126 12.77711756 -7 10 C-7 9.34 -7 8.68 -7 8 C-6.34 8 -5.68 8 -5 8 C-5 7.34 -5 6.68 -5 6 C-4.34 6 -3.68 6 -3 6 C-3 5.01 -3 4.02 -3 3 C-3.66 2.67 -4.32 2.34 -5 2 C-2 0 -2 0 0 0 Z " fill="#11186C" transform="translate(59,37)"/>
<path d="M0 0 C0.32421875 2.17578125 0.32421875 2.17578125 0 5 C-2.23046875 7.60546875 -2.23046875 7.60546875 -5.1875 10.1875 C-6.15042969 11.04730469 -7.11335938 11.90710938 -8.10546875 12.79296875 C-10.73502347 14.79795987 -12.880832 15.97928506 -16 17 C-15.38487182 11.99109914 -14.7282448 6.99367864 -14 2 C-13.67 2 -13.34 2 -13 2 C-13 3.65 -13 5.3 -13 7 C-11.68 7 -10.36 7 -9 7 C-8.8453125 6.1028125 -8.8453125 6.1028125 -8.6875 5.1875 C-7.17772207 0.38366114 -4.82832667 -0.39148595 0 0 Z " fill="#128615" transform="translate(117,106)"/>
<path d="M0 0 C5.14808788 1.02961758 7.62920538 2.34324249 12 5 C11.91979855 7.80705084 11.54452763 9.48206883 9.48046875 11.4453125 C4.65625 15 4.65625 15 1 15 C0.67 10.05 0.34 5.1 0 0 Z " fill="#E4090C" transform="translate(115,72)"/>
<path d="M0 0 C0 4.62 0 9.24 0 14 C-4.93050236 12.35649921 -7.89251684 10.93391654 -12 8 C-10.01351708 2.43784783 -5.71424233 0 0 0 Z " fill="#E40A0B" transform="translate(45,72)"/>
<path d="M0 0 C0.66 0 1.32 0 2 0 C2 0.66 2 1.32 2 2 C1.01 2.495 1.01 2.495 0 3 C0.33 4.65 0.66 6.3 1 8 C1.66 8 2.32 8 3 8 C3 12.29 3 16.58 3 21 C3.66 21 4.32 21 5 21 C5 21.99 5 22.98 5 24 C4.01 23.67 3.02 23.34 2 23 C2 21.68 2 20.36 2 19 C1.01 19 0.02 19 -1 19 C-1 17.02 -1 15.04 -1 13 C-3.43717258 13.27034634 -3.43717258 13.27034634 -6 14 C-6.66 14.99 -7.32 15.98 -8 17 C-7.71379038 10.27407402 -4.7896613 4.7896613 0 0 Z " fill="#FC5F07" transform="translate(62,59)"/>
<path d="M0 0 C8.65079365 3.46031746 8.65079365 3.46031746 11.0625 8 C11 10 11 10 9.4375 12.25 C7 14 7 14 1 14 C0.67 9.38 0.34 4.76 0 0 Z " fill="#2053AD" transform="translate(102,38)"/>
<path d="M0 0 C2.31 0.66 4.62 1.32 7 2 C7 2.66 7 3.32 7 4 C9.97 4.495 9.97 4.495 13 5 C13.33 6.32 13.66 7.64 14 9 C13.01 9.33 12.02 9.66 11 10 C9.18218133 11.60807036 8.0892574 12.8214852 7 15 C6.0115904 13.44333045 5.03464918 11.87937574 4.0625 10.3125 C3.51722656 9.44238281 2.97195312 8.57226562 2.41015625 7.67578125 C1.02832828 5.05375311 0.41519827 2.91689925 0 0 Z " fill="#31A835" transform="translate(35,94)"/>
<path d="M0 0 C0.33 0.99 0.66 1.98 1 3 C0.34 4.32 -0.32 5.64 -1 7 C-5.29 7 -9.58 7 -14 7 C-14.66 5.35 -15.32 3.7 -16 2 C-14.08404518 1.66259915 -12.16720278 1.33023588 -10.25 1 C-9.18265625 0.814375 -8.1153125 0.62875 -7.015625 0.4375 C-4 0 -4 0 0 0 Z " fill="#0A850D" transform="translate(88,121)"/>
<path d="M0 0 C0.33 1.32 0.66 2.64 1 4 C1.94875 3.95875 2.8975 3.9175 3.875 3.875 C7 4 7 4 9 6 C9 4.68 9 3.36 9 2 C9.66 2 10.32 2 11 2 C11 2.66 11 3.32 11 4 C11.99 4.33 12.98 4.66 14 5 C14.3125 7.25 14.3125 7.25 14 10 C11.5 12.3125 11.5 12.3125 9 14 C8.67 13.01 8.34 12.02 8 11 C7.030625 10.690625 6.06125 10.38125 5.0625 10.0625 C2 9 2 9 0.625 7.1875 C-0.0858831 4.69940916 -0.14307397 2.57533152 0 0 Z " fill="#F2740A" transform="translate(88,88)"/>
<path d="M0 0 C0.66 0.33 1.32 0.66 2 1 C1.01 2.65 0.02 4.3 -1 6 C-0.01 6.33 0.98 6.66 2 7 C1.67 8.32 1.34 9.64 1 11 C0.34 11 -0.32 11 -1 11 C-1.33 11.66 -1.66 12.32 -2 13 C-2.99 12.34 -3.98 11.68 -5 11 C-4.67 9.35 -4.34 7.7 -4 6 C-6.82411765 5.05862745 -8.52918032 4.88274618 -11.44921875 4.90234375 C-12.29677734 4.90556641 -13.14433594 4.90878906 -14.01757812 4.91210938 C-15.33918945 4.92467773 -15.33918945 4.92467773 -16.6875 4.9375 C-18.02651367 4.94426758 -18.02651367 4.94426758 -19.39257812 4.95117188 C-21.59511987 4.96295017 -23.79752599 4.97939836 -26 5 C-25.01 3.68 -24.02 2.36 -23 1 C-22.4946875 1.16113281 -21.989375 1.32226562 -21.46875 1.48828125 C-18.12271723 2.18184184 -14.91519441 2.17069294 -11.5 2.1875 C-9.53546875 2.20876953 -9.53546875 2.20876953 -7.53125 2.23046875 C-4.25354299 2.01654761 -2.77410882 1.55062215 0 0 Z " fill="#090608" transform="translate(93,104)"/>
<path d="M0 0 C2.66811621 0.99101459 4.85221015 1.88698423 7.125 3.625 C10.95768733 5.45802437 14.13480585 5.16372875 18.328125 5.0390625 C21.31658674 4.99537154 24.08126271 5.36892167 27 6 C27 4.68 27 3.36 27 2 C28.98 1.67 30.96 1.34 33 1 C33 1.66 33 2.32 33 3 C33.66 3.33 34.32 3.66 35 4 C28.29352383 9.23432287 21.22082082 8.73034378 13 8 C7.31337581 6.87820767 3.72160481 4.30310556 0 0 Z " fill="#D31A11" transform="translate(61,99)"/>
<path d="M0 0 C5.91364476 0.28847048 9.12701567 2.78941897 13 7 C15.32927607 10.23093133 17 12.91061119 17 17 C16.01 16.67 15.02 16.34 14 16 C13.67 15.01 13.34 14.02 13 13 C11.00334402 11.32932867 9.00348966 9.66247014 7 8 C7 7.34 7 6.68 7 6 C6.360625 5.731875 5.72125 5.46375 5.0625 5.1875 C3 4 3 4 2 1 C1.34 0.67 0.68 0.34 0 0 Z " fill="#F0ECD2" transform="translate(89,55)"/>
<path d="M0 0 C0.66 0.33 1.32 0.66 2 1 C1.34 2.65 0.68 4.3 0 6 C1.98 6.66 3.96 7.32 6 8 C6.33 9.65 6.66 11.3 7 13 C4.36 13 1.72 13 -1 13 C-1 12.34 -1 11.68 -1 11 C-1.66 11 -2.32 11 -3 11 C-3.66 9.35 -4.32 7.7 -5 6 C-4.01 5.67 -3.02 5.34 -2 5 C-1.33820153 3.01954441 -1.33820153 3.01954441 -1 1 C-0.67 0.67 -0.34 0.34 0 0 Z " fill="#FD9A06" transform="translate(66,56)"/>
<path d="M0 0 C1.65322266 0.01740234 1.65322266 0.01740234 3.33984375 0.03515625 C4.99693359 0.04869141 4.99693359 0.04869141 6.6875 0.0625 C7.54214844 0.07410156 8.39679688 0.08570312 9.27734375 0.09765625 C9.27734375 0.75765625 9.27734375 1.41765625 9.27734375 2.09765625 C7.66796875 3.38671875 7.66796875 3.38671875 5.52734375 4.72265625 C4.83125 5.16867188 4.13515625 5.6146875 3.41796875 6.07421875 C1.27734375 7.09765625 1.27734375 7.09765625 -2.72265625 7.09765625 C-2.72265625 7.75765625 -2.72265625 8.41765625 -2.72265625 9.09765625 C-3.38265625 9.09765625 -4.04265625 9.09765625 -4.72265625 9.09765625 C-3.72665753 0.13366777 -3.72665753 0.13366777 0 0 Z " fill="#246CC2" transform="translate(75.72265625,31.90234375)"/>
<path d="M0 0 C3 0 3 0 5.6875 2.375 C8 5 8 5 8 7 C8.66 7 9.32 7 10 7 C10.33 7.66 10.66 8.32 11 9 C12.97888961 9.72693904 14.97954558 10.39816251 17 11 C17.66 9.68 18.32 8.36 19 7 C19 9.97 19 12.94 19 16 C15.93606987 16.25532751 14.36766788 16.21861333 11.6875 14.625 C11.130625 14.08875 10.57375 13.5525 10 13 C10 12.34 10 11.68 10 11 C9.34 11 8.68 11 8 11 C8 10.01 8 9.02 8 8 C7.34 8 6.68 8 6 8 C4.64613064 6.34997172 3.31321858 4.6825613 2 3 C1.34 2.67 0.68 2.34 0 2 C0 1.34 0 0.68 0 0 Z " fill="#F5DA67" transform="translate(88,64)"/>
<path d="M0 0 C3.13284209 0.4984067 3.57653108 0.98704921 5.5625 3.3125 C7.75 6.4375 7.75 6.4375 7.75 8.4375 C6.3129191 8.49172947 4.87524538 8.53039723 3.4375 8.5625 C2.63699219 8.58570312 1.83648437 8.60890625 1.01171875 8.6328125 C-1.25 8.4375 -1.25 8.4375 -4.25 6.4375 C-3.20645756 0.62347786 -3.20645756 0.62347786 0 0 Z " fill="#FABA0A" transform="translate(70.25,55.5625)"/>
<path d="M0 0 C3.80366301 -0.41774334 5.43747856 -0.44930958 8.484375 1.984375 C14.16861074 8.92306277 16.23375609 14.13346328 17 23 C17.33 23.99 17.66 24.98 18 26 C16.35 25.34 14.7 24.68 13 24 C13.66 23.67 14.32 23.34 15 23 C14.36603686 15.33049754 14.36603686 15.33049754 10.125 9.25 C7.18831993 7.79345556 7.18831993 7.79345556 4.625 8.25 C4.08875 8.4975 3.5525 8.745 3 9 C3.33 8.01 3.66 7.02 4 6 C4.66 5.67 5.32 5.34 6 5 C6 4.01 6 3.02 6 2 C3.03 1.505 3.03 1.505 0 1 C0 0.67 0 0.34 0 0 Z " fill="#229428" transform="translate(42,97)"/>
<path d="M0 0 C1.65 0 3.3 0 5 0 C5 0.66 5 1.32 5 2 C5.66 2 6.32 2 7 2 C7 2.66 7 3.32 7 4 C7.763125 4.103125 8.52625 4.20625 9.3125 4.3125 C12.19700648 5.05039701 13.35495989 5.53243984 15 8 C14.6875 10.1875 14.6875 10.1875 14 12 C11.69 11.01 9.38 10.02 7 9 C7 8.34 7 7.68 7 7 C6.34 7 5.68 7 5 7 C5 6.34 5 5.68 5 5 C4.360625 4.731875 3.72125 4.46375 3.0625 4.1875 C1 3 1 3 0 0 Z " fill="#FEE582" transform="translate(91,64)"/>
<path d="M0 0 C1.32 0.33 2.64 0.66 4 1 C4 1.66 4 2.32 4 3 C4.928125 3.28875 5.85625 3.5775 6.8125 3.875 C10 5 10 5 13 7 C13 7.66 13 8.32 13 9 C13.99 9 14.98 9 16 9 C16 9.66 16 10.32 16 11 C16.61875 11.2475 17.2375 11.495 17.875 11.75 C20.35068687 13.20628639 20.95125002 14.37812506 22 17 C22.66 17 23.32 17 24 17 C24 17.99 24 18.98 24 20 C23.01 19.67 22.02 19.34 21 19 C20.7525 18.401875 20.505 17.80375 20.25 17.1875 C18.59491039 14.29109318 16.57631061 13.47608689 13.6875 11.94140625 C11.76381447 10.86823909 10.34985496 9.74687112 9 8 C9 7.34 9 6.68 9 6 C8.2575 5.9175 7.515 5.835 6.75 5.75 C3.47402617 4.85655259 2.16408188 3.56483779 0 1 C0 0.67 0 0.34 0 0 Z " fill="#FED73C" transform="translate(72,55)"/>
<path d="M0 0 C-1.75 5.75 -1.75 5.75 -4 8 C-4 6.68 -4 5.36 -4 4 C-4.33 4.99 -4.66 5.98 -5 7 C-5.99 7 -6.98 7 -8 7 C-8 6.34 -8 5.68 -8 5 C-9.65 5 -11.3 5 -13 5 C-13 5.66 -13 6.32 -13 7 C-12.01 7.33 -11.02 7.66 -10 8 C-10.928125 8.268125 -11.85625 8.53625 -12.8125 8.8125 C-15.76240366 9.91148371 -17.05615186 10.62418561 -19 13 C-19.66 12.67 -20.32 12.34 -21 12 C-19.73046875 10.50260417 -18.4609375 9.00520833 -17.19140625 7.5078125 C-15.9121848 5.99405921 -15.9121848 5.99405921 -15 4 C-12.88262268 3.21066478 -10.72945068 2.51582879 -8.5625 1.875 C-7.38816406 1.52179688 -6.21382812 1.16859375 -5.00390625 0.8046875 C-2 0 -2 0 0 0 Z " fill="#2B9A2D" transform="translate(125,95)"/>
<path d="M0 0 C0.680625 0.70125 1.36125 1.4025 2.0625 2.125 C0.4125 2.785 -1.2375 3.445 -2.9375 4.125 C-2.36165568 6.51064077 -1.71522405 8.79182784 -0.9375 11.125 C-4.74552445 9.6289904 -6.63174557 7.46436849 -8.9375 4.125 C-9.6875 1.8125 -9.6875 1.8125 -9.9375 0.125 C-3.66057692 -2.33653846 -3.66057692 -2.33653846 0 0 Z " fill="#119113" transform="translate(51.9375,105.875)"/>
<path d="M0 0 C0.99 0.66 1.98 1.32 3 2 C2.67 4.31 2.34 6.62 2 9 C1.34 9 0.68 9 0 9 C0 10.32 0 11.64 0 13 C-0.66 13 -1.32 13 -2 13 C-2 12.34 -2 11.68 -2 11 C-2.928125 10.8453125 -2.928125 10.8453125 -3.875 10.6875 C-6 10 -6 10 -8 7 C-5.69 6.34 -3.38 5.68 -1 5 C-0.67 3.35 -0.34 1.7 0 0 Z " fill="#1A3991" transform="translate(112,45)"/>
<path d="M0 0 C2.4375 0.6875 2.4375 0.6875 5 2 C6.23531132 5.04710125 6.11850008 6.59892279 5.1875 9.75 C4 12 4 12 2 13 C1.66127487 11.58461283 1.32925376 10.16762037 1 8.75 C0.814375 7.96109375 0.62875 7.1721875 0.4375 6.359375 C0 4 0 4 0 0 Z " fill="#277FDE" transform="translate(102,38)"/>
<path d="M0 0 C0.66 0.33 1.32 0.66 2 1 C1 4 1 4 -0.7421875 5.16796875 C-1.44601563 5.50441406 -2.14984375 5.84085938 -2.875 6.1875 C-3.57367188 6.53167969 -4.27234375 6.87585937 -4.9921875 7.23046875 C-7 8 -7 8 -10 8 C-10 8.66 -10 9.32 -10 10 C-10.99 10 -11.98 10 -13 10 C-13 10.66 -13 11.32 -13 12 C-13.99 12 -14.98 12 -16 12 C-15.67 10.02 -15.34 8.04 -15 6 C-14.67 6.99 -14.34 7.98 -14 9 C-13.34 9 -12.68 9 -12 9 C-12 8.34 -12 7.68 -12 7 C-8.01811282 5.28232318 -4.03520597 3.58962659 0 2 C0 1.34 0 0.68 0 0 Z " fill="#143290" transform="translate(85,32)"/>
<path d="M0 0 C2.42776667 1.29480889 3.76967674 2.35838519 4.7109375 4.98046875 C5.19782198 6.9738726 5.60391861 8.98658625 6 11 C-0.15234375 10.4140625 -0.15234375 10.4140625 -2 10 C-2.33 9.34 -2.66 8.68 -3 8 C-1.68 8 -0.36 8 1 8 C0.67 7.34 0.34 6.68 0 6 C-0.039992 4.00039988 -0.04346799 1.99952758 0 0 Z " fill="#0F0F62" transform="translate(118,52)"/>
<path d="M0 0 C0.66 0 1.32 0 2 0 C2.08507813 0.61359375 2.17015625 1.2271875 2.2578125 1.859375 C2.81206626 4.11715821 2.81206626 4.11715821 4.7421875 5.265625 C5.44601563 5.59046875 6.14984375 5.9153125 6.875 6.25 C7.57367188 6.58515625 8.27234375 6.9203125 8.9921875 7.265625 C11.11325909 8.17175146 11.11325909 8.17175146 14 8 C13.34 9.32 12.68 10.64 12 12 C10.35 11.01 8.7 10.02 7 9 C6.34 9.66 5.68 10.32 5 11 C5 10.34 5 9.68 5 9 C4.34 9 3.68 9 3 9 C2.01 6.03 1.02 3.06 0 0 Z " fill="#DE150D" transform="translate(55,88)"/>
<path d="M0 0 C0.33 0 0.66 0 1 0 C1.31005435 6.51114134 0.89639695 12.06417415 -2 18 C-3.60546875 19.7578125 -3.60546875 19.7578125 -5 21 C-5.33 19.68 -5.66 18.36 -6 17 C-5.01 17 -4.02 17 -3 17 C-3.04125 16.0925 -3.0825 15.185 -3.125 14.25 C-3.00468444 11.1217954 -2.6085292 9.61385994 -1 7 C-1.99 7 -2.98 7 -4 7 C-4 6.34 -4 5.68 -4 5 C-2.68 5 -1.36 5 0 5 C0 3.35 0 1.7 0 0 Z " fill="#CBA73A" transform="translate(107,75)"/>
<path d="M0 0 C0.99 0 1.98 0 3 0 C3 0.99 3 1.98 3 3 C6.63 3 10.26 3 14 3 C14 2.01 14 1.02 14 0 C14.99 0.33 15.98 0.66 17 1 C16.34 2.32 15.68 3.64 15 5 C10.71 5 6.42 5 2 5 C1.34 3.35 0.68 1.7 0 0 Z " fill="#156B1A" transform="translate(72,123)"/>
<path d="M0 0 C0 4.62 0 9.24 0 14 C-0.66 13.67 -1.32 13.34 -2 13 C-1.67 10.03 -1.34 7.06 -1 4 C-1.99 4 -2.98 4 -4 4 C-4 5.65 -4 7.3 -4 9 C-4.33 9 -4.66 9 -5 9 C-5.12375 8.195625 -5.2475 7.39125 -5.375 6.5625 C-5.684375 5.2940625 -5.684375 5.2940625 -6 4 C-6.66 3.67 -7.32 3.34 -8 3 C-4.93882432 0.37613513 -4.26826873 0 0 0 Z " fill="#B80A0F" transform="translate(45,72)"/>
<path d="M0 0 C2.31 0.33 4.62 0.66 7 1 C6.67 1.99 6.34 2.98 6 4 C4.35 4.33 2.7 4.66 1 5 C0.67 5.99 0.34 6.98 0 8 C-0.99 7.67 -1.98 7.34 -3 7 C-2.01 4.69 -1.02 2.38 0 0 Z " fill="#193382" transform="translate(39,55)"/>
<path d="M0 0 C0.33 0 0.66 0 1 0 C1 1.98 1 3.96 1 6 C1.66 6.33 2.32 6.66 3 7 C2.01 8.485 2.01 8.485 1 10 C2.32 10.33 3.64 10.66 5 11 C3.02 12.32 1.04 13.64 -1 15 C-2.20220203 11.46905698 -1.79532349 8.87101018 -1.0625 5.25 C-0.86785156 4.26515625 -0.67320313 3.2803125 -0.47265625 2.265625 C-0.31667969 1.51796875 -0.16070312 0.7703125 0 0 Z " fill="#1B6B20" transform="translate(103,108)"/>
<path d="M0 0 C0.66 0 1.32 0 2 0 C2.125 2.375 2.125 2.375 2 5 C-0.5654594 7.5654594 -2.47686668 7.54046087 -6 8 C-6 8.66 -6 9.32 -6 10 C-8.64 10.33 -11.28 10.66 -14 11 C-13.01 10.67 -12.02 10.34 -11 10 C-11 9.34 -11 8.68 -11 8 C-10.37351562 7.72285156 -9.74703125 7.44570313 -9.1015625 7.16015625 C-8.28429687 6.79792969 -7.46703125 6.43570313 -6.625 6.0625 C-5.40683594 5.52302734 -5.40683594 5.52302734 -4.1640625 4.97265625 C-2.76316215 4.3430097 -1.37374716 3.68687358 0 3 C0 2.01 0 1.02 0 0 Z " fill="#122179" transform="translate(86,32)"/>
<path d="M0 0 C4.455 1.98 4.455 1.98 9 4 C9 3.34 9 2.68 9 2 C9.66 2 10.32 2 11 2 C10.67 3.98 10.34 5.96 10 8 C6.4134946 6.66786942 3.12317517 5.23083941 0 3 C0 2.01 0 1.02 0 0 Z " fill="#F7110A" transform="translate(61,96)"/>
<path d="M0 0 C0.33 1.32 0.66 2.64 1 4 C0.01 4.33 -0.98 4.66 -2 5 C-2.33 5.66 -2.66 6.32 -3 7 C-3.99 7 -4.98 7 -6 7 C-6 6.01 -6 5.02 -6 4 C-6.66 3.67 -7.32 3.34 -8 3 C-3.375 0 -3.375 0 0 0 Z " fill="#1FAC20" transform="translate(48,99)"/>
<path d="M0 0 C0.33 0.66 0.66 1.32 1 2 C1.66 2.33 2.32 2.66 3 3 C-4.28571429 7.57142857 -4.28571429 7.57142857 -9 7 C-7.68 6.34 -6.36 5.68 -5 5 C-5 3.68 -5 2.36 -5 1 C-3.35 0.67 -1.7 0.34 0 0 Z " fill="#D74515" transform="translate(93,100)"/>
<path d="M0 0 C2 0 4 0 6 0 C6.625 1.8125 6.625 1.8125 7 4 C6.01 5.485 6.01 5.485 5 7 C2.5 5.75 2.5 5.75 0 4 C0 2.68 0 1.36 0 0 Z " fill="#F71A09" transform="translate(57,88)"/>
<path d="M0 0 C-0.66 0 -1.32 0 -2 0 C-1.67 0.66 -1.34 1.32 -1 2 C-0.76970044 4.37123246 -0.58880058 6.74741943 -0.4375 9.125 C-0.35371094 10.40632813 -0.26992187 11.68765625 -0.18359375 13.0078125 C-0.09271484 14.48894531 -0.09271484 14.48894531 0 16 C-0.66 16 -1.32 16 -2 16 C-2 12.7 -2 9.4 -2 6 C-2.66 5.67 -3.32 5.34 -4 5 C-4 4.34 -4 3.68 -4 3 C-4.66 2.67 -5.32 2.34 -6 2 C-6 1.34 -6 0.68 -6 0 C-3 -1 -3 -1 0 0 Z " fill="#36080B" transform="translate(117,72)"/>
<path d="M0 0 C0.66 0 1.32 0 2 0 C2 0.66 2 1.32 2 2 C1.01 2.495 1.01 2.495 0 3 C0.33 4.65 0.66 6.3 1 8 C1.66 8 2.32 8 3 8 C2.67 8.66 2.34 9.32 2 10 C-0.97 9.505 -0.97 9.505 -4 9 C-2.25 2.25 -2.25 2.25 0 0 Z " fill="#E97E12" transform="translate(62,59)"/>
<path d="M0 0 C0.66 0.33 1.32 0.66 2 1 C1.34 2.65 0.68 4.3 0 6 C0.99 6.33 1.98 6.66 3 7 C2.01 7.33 1.02 7.66 0 8 C-0.66 7.67 -1.32 7.34 -2 7 C-2.33 8.32 -2.66 9.64 -3 11 C-3.66 9.35 -4.32 7.7 -5 6 C-4.01 5.67 -3.02 5.34 -2 5 C-1.33820153 3.01954441 -1.33820153 3.01954441 -1 1 C-0.67 0.67 -0.34 0.34 0 0 Z " fill="#F19C13" transform="translate(66,56)"/>
<path d="M0 0 C0.99 0 1.98 0 3 0 C8 5.34883721 8 5.34883721 8 8 C6.68 8 5.36 8 4 8 C4 7.01 4 6.02 4 5 C2.68 4.34 1.36 3.68 0 3 C0 2.01 0 1.02 0 0 Z " fill="#FDCC0A" transform="translate(70,56)"/>
<path d="M0 0 C5.75 1.875 5.75 1.875 8 3 C8 3.99 8 4.98 8 6 C4.88742431 6 2.89234315 5.82638376 0 5 C0 3.35 0 1.7 0 0 Z " fill="#F85C07" transform="translate(88,96)"/>
<path d="M0 0 C2.88634978 1.68614348 3.86930168 2.53643945 4.79296875 5.8125 C4.92316406 6.864375 5.05335937 7.91625 5.1875 9 C5.60470875 12.18170411 5.98361522 14.95084567 7 18 C4.525 17.01 4.525 17.01 2 16 C2.66 15.67 3.32 15.34 4 15 C3.71617054 13.24871182 3.42260471 11.49899997 3.125 9.75 C2.96257813 8.77546875 2.80015625 7.8009375 2.6328125 6.796875 C2.05144152 4.22735883 1.29159735 2.27928944 0 0 Z " fill="#1E6821" transform="translate(53,105)"/>
<path d="M0 0 C5.28 0.66 10.56 1.32 16 2 C16 2.33 16 2.66 16 3 C9.93303301 3.77040851 4.11485027 4.09706112 -2 4 C-1.34 2.68 -0.68 1.36 0 0 Z " fill="#33090B" transform="translate(69,105)"/>
<path d="M0 0 C-1.75 5.75 -1.75 5.75 -4 8 C-4 6.68 -4 5.36 -4 4 C-6.31 4 -8.62 4 -11 4 C-3.28571429 0 -3.28571429 0 0 0 Z " fill="#2D812C" transform="translate(125,95)"/>
<path d="M0 0 C1.4540625 0.0309375 1.4540625 0.0309375 2.9375 0.0625 C3.2675 3.0325 3.5975 6.0025 3.9375 9.0625 C3.6075 7.7425 3.2775 6.4225 2.9375 5.0625 C0.51366923 3.89296584 0.51366923 3.89296584 -2.0625 3.0625 C-2.7225 2.4025 -3.3825 1.7425 -4.0625 1.0625 C-3.0625 0.0625 -3.0625 0.0625 0 0 Z " fill="#170506" transform="translate(124.0625,71.9375)"/>
<path d="M0 0 C2.71675995 0.36712972 4.61063713 0.72744599 6.875 2.3125 C8 4 8 4 7.6875 6.1875 C7.460625 6.785625 7.23375 7.38375 7 8 C6.01 7.67 5.02 7.34 4 7 C4 6.01 4 5.02 4 4 C3.01 3.67 2.02 3.34 1 3 C0.67 2.01 0.34 1.02 0 0 Z " fill="#FDEB99" transform="translate(98,68)"/>
<path d="M0 0 C3.73487777 0.4979837 5.81237635 0.87491756 9 3 C8.67 3.99 8.34 4.98 8 6 C6.125 5.75 6.125 5.75 4 5 C2.875 3 2.875 3 2 1 C1.34 0.67 0.68 0.34 0 0 Z " fill="#F0ECDA" transform="translate(89,55)"/>
<path d="M0 0 C1.65 0 3.3 0 5 0 C5 0.66 5 1.32 5 2 C3.390625 3.32421875 3.390625 3.32421875 1.25 4.6875 C0.55390625 5.14511719 -0.1421875 5.60273437 -0.859375 6.07421875 C-3.39090725 7.16906025 -4.46100862 6.9435441 -7 6 C-6.01 5.67 -5.02 5.34 -4 5 C-3.67 4.34 -3.34 3.68 -3 3 C-2.01 3 -1.02 3 0 3 C0 2.01 0 1.02 0 0 Z " fill="#1C55B4" transform="translate(80,32)"/>
<path d="M0 0 C0.66 0 1.32 0 2 0 C2.33 2.31 2.66 4.62 3 7 C0.5625 6.625 0.5625 6.625 -2 6 C-2.33 5.34 -2.66 4.68 -3 4 C-2.01 4 -1.02 4 0 4 C0 2.68 0 1.36 0 0 Z " fill="#0D7D13" transform="translate(54,113)"/>
<path d="M0 0 C0.66 0 1.32 0 2 0 C2 0.66 2 1.32 2 2 C2.99 2.33 3.98 2.66 5 3 C4.67 4.32 4.34 5.64 4 7 C2.35 7 0.7 7 -1 7 C-0.67 4.69 -0.34 2.38 0 0 Z " fill="#F8910B" transform="translate(97,90)"/>
<path d="M0 0 C1.45792884 -0.05399736 2.91642712 -0.09279177 4.375 -0.125 C5.18710938 -0.14820313 5.99921875 -0.17140625 6.8359375 -0.1953125 C9 0 9 0 11 2 C10.34 2 9.68 2 9 2 C9 2.66 9 3.32 9 4 C6.03 3.01 3.06 2.02 0 1 C0 0.67 0 0.34 0 0 Z " fill="#EBE1B6" transform="translate(80,53)"/>
<path d="M0 0 C0.33 1.32 0.66 2.64 1 4 C0.34 4 -0.32 4 -1 4 C-1 5.32 -1 6.64 -1 8 C-2.98 8 -4.96 8 -7 8 C-5.1875 5.5 -5.1875 5.5 -3 3 C-2.01 3 -1.02 3 0 3 C0 2.01 0 1.02 0 0 Z " fill="#153495" transform="translate(47,48)"/>
<path d="M0 0 C4.29 0.33 8.58 0.66 13 1 C8.60171741 3.1991413 5.81449408 3.51855059 1 4 C0.67 2.68 0.34 1.36 0 0 Z " fill="#20B524" transform="translate(71,117)"/>
<path d="M0 0 C1.98 0 3.96 0 6 0 C5.67 1.98 5.34 3.96 5 6 C3.0625 5.25 3.0625 5.25 1 4 C0.25 1.875 0.25 1.875 0 0 Z " fill="#149318" transform="translate(42,106)"/>
<path d="M0 0 C0.99 0 1.98 0 3 0 C3 1.32 3 2.64 3 4 C1.02 4.33 -0.96 4.66 -3 5 C-3 4.34 -3 3.68 -3 3 C-3.99 3 -4.98 3 -6 3 C-6 2.34 -6 1.68 -6 1 C-4.35 1 -2.7 1 -1 1 C-1 1.66 -1 2.32 -1 3 C-0.01 3 0.98 3 2 3 C2 2.34 2 1.68 2 1 C1.34 0.67 0.68 0.34 0 0 Z " fill="#1BAB1C" transform="translate(118,99)"/>
<path d="M0 0 C1.35439668 2.70879335 1.06501451 5.00933268 1 8 C0.01 8.33 -0.98 8.66 -2 9 C-2.66 9.99 -3.32 10.98 -4 12 C-3.5317879 7.22423661 -2.75668002 3.95523655 0 0 Z " fill="#CE5320" transform="translate(58,64)"/>
<path d="M0 0 C0.33 0.99 0.66 1.98 1 3 C0.67 3.66 0.34 4.32 0 5 C-0.66 5 -1.32 5 -2 5 C-2 6.32 -2 7.64 -2 9 C-2.66 9 -3.32 9 -4 9 C-4 8.34 -4 7.68 -4 7 C-5.32 6.67 -6.64 6.34 -8 6 C-5 5 -5 5 -3 5 C-3 4.34 -3 3.68 -3 3 C-1.5 1.375 -1.5 1.375 0 0 Z " fill="#142682" transform="translate(114,49)"/>
<path d="M0 0 C4.95 0 9.9 0 15 0 C15 0.33 15 0.66 15 1 C10.05 1.66 5.1 2.32 0 3 C0 2.01 0 1.02 0 0 Z " fill="#D9D9D9" transform="translate(59,0)"/>
<path d="M0 0 C2.64 0.66 5.28 1.32 8 2 C8 2.99 8 3.98 8 5 C4.62537285 4.45276317 2.91765 3.9451 0 2 C0 1.34 0 0.68 0 0 Z " fill="#FEDB51" transform="translate(98,75)"/>
<path d="M0 0 C0.99 0 1.98 0 3 0 C3 1.98 3 3.96 3 6 C1.68 6 0.36 6 -1 6 C-1.042721 4.33388095 -1.04063832 2.66617115 -1 1 C-0.67 0.67 -0.34 0.34 0 0 Z " fill="#F94506" transform="translate(56,72)"/>
<path d="M0 0 C0.99 0.66 1.98 1.32 3 2 C3.1875 4.625 3.1875 4.625 3 7 C1.35 7.33 -0.3 7.66 -2 8 C-2.33 7.34 -2.66 6.68 -3 6 C-2.34 6 -1.68 6 -1 6 C-0.67 4.02 -0.34 2.04 0 0 Z " fill="#121871" transform="translate(115,48)"/>
<path d="M0 0 C-0.66 0 -1.32 0 -2 0 C-2.33 1.32 -2.66 2.64 -3 4 C-4.65 4 -6.3 4 -8 4 C-7 1 -7 1 -5.125 -0.25 C-3 -1 -3 -1 0 0 Z " fill="#0A830C" transform="translate(112,114)"/>
<path d="M0 0 C0.66 0 1.32 0 2 0 C2.66 2.31 3.32 4.62 4 7 C2 6 0 5 -2 4 C-1.34 2.68 -0.68 1.36 0 0 Z " fill="#D00C0E" transform="translate(35,76)"/>
<path d="M0 0 C2.91227269 3.28804981 4.49701212 5.59885603 5 10 C2 9 2 9 0.8125 6.6875 C0 4 0 4 0 0 Z " fill="#E6DFC0" transform="translate(101,62)"/>
<path d="M0 0 C0.66 0.33 1.32 0.66 2 1 C2 2.98 2 4.96 2 7 C1.34 7 0.68 7 0 7 C0 7.99 0 8.98 0 10 C-0.99 9.67 -1.98 9.34 -3 9 C-2.01 6.03 -1.02 3.06 0 0 Z " fill="#2166C8" transform="translate(108,41)"/>
<path d="M0 0 C0.33 0.99 0.66 1.98 1 3 C1.66 3 2.32 3 3 3 C3 2.34 3 1.68 3 1 C4.32 1.33 5.64 1.66 7 2 C6.34 2 5.68 2 5 2 C5 2.66 5 3.32 5 4 C4.01 4 3.02 4 2 4 C2 4.66 2 5.32 2 6 C1.01 6 0.02 6 -1 6 C-0.67 4.02 -0.34 2.04 0 0 Z " fill="#1D3F8A" transform="translate(70,38)"/>
<path d="M0 0 C1.65 0 3.3 0 5 0 C5 0.99 5 1.98 5 3 C4.01 3 3.02 3 2 3 C1.67 3.99 1.34 4.98 1 6 C0.34 5.67 -0.32 5.34 -1 5 C-0.67 3.35 -0.34 1.7 0 0 Z " fill="#2577DA" transform="translate(75,32)"/>
<path d="M0 0 C2 1 2 1 2.6328125 2.84765625 C2.79523438 3.57855469 2.95765625 4.30945312 3.125 5.0625 C3.29257813 5.79597656 3.46015625 6.52945313 3.6328125 7.28515625 C3.75398438 7.85105469 3.87515625 8.41695312 4 9 C-2.15234375 8.4140625 -2.15234375 8.4140625 -4 8 C-4.33 7.34 -4.66 6.68 -5 6 C-2.69 6.33 -0.38 6.66 2 7 C1.34 4.69 0.68 2.38 0 0 Z " fill="#0A0B38" transform="translate(120,54)"/>
<path d="M0 0 C1.32 0 2.64 0 4 0 C4 1.65 4 3.3 4 5 C2.68 5 1.36 5 0 5 C0 3.35 0 1.7 0 0 Z " fill="#149817" transform="translate(104,108)"/>
<path d="M0 0 C4.75 1.875 4.75 1.875 7 3 C6.67 4.32 6.34 5.64 6 7 C6 6.01 6 5.02 6 4 C4.35 4 2.7 4 1 4 C0.67 2.68 0.34 1.36 0 0 Z " fill="#CD0B0F" transform="translate(120,74)"/>
<path d="M0 0 C0.99 0.33 1.98 0.66 3 1 C3 2.98 3 4.96 3 7 C2.01 7 1.02 7 0 7 C0 4.69 0 2.38 0 0 Z " fill="#FC5506" transform="translate(72,82)"/>
<path d="M0 0 C0.66 0 1.32 0 2 0 C2.12375 0.61875 2.2475 1.2375 2.375 1.875 C2.87197356 4.19120832 2.87197356 4.19120832 5 6 C3.35 6.33 1.7 6.66 0 7 C0 4.69 0 2.38 0 0 Z " fill="#E5070E" transform="translate(117,79)"/>
<path d="M0 0 C0.33 2.64 0.66 5.28 1 8 C0.01 7.67 -0.98 7.34 -2 7 C-2.33 5.02 -2.66 3.04 -3 1 C-1 0 -1 0 0 0 Z " fill="#F20304" transform="translate(40,75)"/>
<path d="M0 0 C2.31 0.66 4.62 1.32 7 2 C7 2.66 7 3.32 7 4 C5.02 4 3.04 4 1 4 C0.67 2.68 0.34 1.36 0 0 Z " fill="#FDE170" transform="translate(84,60)"/>
<path d="M0 0 C0.66 0 1.32 0 2 0 C5 4.38461538 5 4.38461538 5 7 C1.83884224 5.63016497 1.0072908 5.0109362 -1 2 C-0.67 1.34 -0.34 0.68 0 0 Z " fill="#117119" transform="translate(46,110)"/>
<path d="M0 0 C0.99 0.33 1.98 0.66 3 1 C3 2.65 3 4.3 3 6 C2.01 6 1.02 6 0 6 C-0.38218767 4.34385343 -0.71395102 2.67542976 -1 1 C-0.67 0.67 -0.34 0.34 0 0 Z " fill="#FB3E07" transform="translate(73,88)"/>
<path d="M0 0 C2.31 0.33 4.62 0.66 7 1 C6.67 1.99 6.34 2.98 6 4 C3.9375 4.6875 3.9375 4.6875 2 5 C2.33 4.01 2.66 3.02 3 2 C2.01 2 1.02 2 0 2 C0 1.34 0 0.68 0 0 Z " fill="#142980" transform="translate(39,55)"/>
</svg>
